<?xml version="1.0" encoding="utf-8"?>
<!-- Generator: Adobe Illustrator 23.0.1, SVG Export Plug-In . SVG Version: 6.00 Build 0)  -->
<svg version="1.1" id="Layer_1" xmlns="http://www.w3.org/2000/svg" xmlns:xlink="http://www.w3.org/1999/xlink" x="0px" y="0px"
	 viewBox="0 0 24 24" style="enable-background:new 0 0 24 24;" xml:space="preserve">
<style type="text/css">
	.st0{fill:#FFFFFF;stroke:#000000;stroke-width:0.5;stroke-miterlimit:10;}
</style>
<path class="st0" d="M12,20.5"/>
<g>
	<path d="M5.51,17.04c-0.19,0-0.28-0.09-0.28-0.28V7.24c0-0.19,0.09-0.28,0.28-0.28h4.94c0.19,0,0.28,0.09,0.28,0.28v0.7
		c0,0.19-0.09,0.28-0.28,0.28H6.99v3.09h2.76c0.19,0,0.28,0.09,0.28,0.28v0.7c0,0.19-0.09,0.28-0.28,0.28H6.99v4.19
		c0,0.19-0.09,0.28-0.28,0.28H5.51z"/>
	<path d="M17.05,17.04c-0.19,0-0.33-0.08-0.42-0.24l-1.78-2.83h-1.09v2.79c0,0.19-0.09,0.28-0.28,0.28h-1.2
		c-0.19,0-0.28-0.09-0.28-0.28V7.24c0-0.19,0.09-0.28,0.28-0.28h2.66c0.53,0,1.02,0.09,1.46,0.27c0.44,0.18,0.82,0.43,1.13,0.75
		c0.32,0.32,0.56,0.69,0.74,1.12c0.18,0.43,0.27,0.89,0.27,1.37c0,0.69-0.18,1.32-0.53,1.88s-0.84,0.98-1.46,1.27l2.16,3.19
		c0.06,0.07,0.08,0.13,0.07,0.17c-0.01,0.04-0.07,0.06-0.18,0.06H17.05z M14.65,12.71c0.69,0,1.21-0.19,1.57-0.56
		c0.36-0.37,0.54-0.93,0.54-1.68s-0.18-1.31-0.54-1.68c-0.36-0.37-0.88-0.56-1.57-0.57h-0.9v4.49H14.65z"/>
</g>
<g>
	<path d="M21.43,1.55H2.57c-0.56,0-1.02,0.46-1.02,1.02v18.86c0,0.56,0.46,1.02,1.02,1.02h13.95c3.28,0,5.93-2.66,5.93-5.93V2.57
		C22.45,2.01,21.99,1.55,21.43,1.55z M21.5,15.57c0,3.28-2.66,5.93-5.93,5.93H3.52c-0.56,0-1.02-0.46-1.02-1.02V3.52
		c0-0.56,0.46-1.02,1.02-1.02h16.96c0.56,0,1.02,0.46,1.02,1.02V15.57z"/>
</g>
</svg>
